<?xml version="1.0" encoding="UTF-8"?>
<svg width="164px" height="164px" viewBox="0 0 164 164" version="1.1" xmlns="http://www.w3.org/2000/svg" xmlns:xlink="http://www.w3.org/1999/xlink">
    <title>orkes-logo-mark-1-color</title>
    <g id="orkes-logo-mark-1-color" stroke="none" stroke-width="1" fill="none" fill-rule="evenodd">
        <g id="Group-13" transform="translate(16.367461, 13.639551)" fill="#fff">
            <path d="M120.079062,100.666162 L100.547225,120.197999 C95.8061171,124.939107 89.5019165,127.549717 82.7994411,127.549717 C78.8166921,127.549717 75.7805281,126.559486 75.7805281,126.559486 L75.7805281,126.559486 C69.5690764,124.819079 61.7863485,121.668343 55.5667132,112.780811 L113.41205,54.9327468 C113.796685,54.5508394 114.167681,54.1580203 114.535949,53.7515617 C116.401839,51.7029011 117.866727,49.5233008 118.979715,47.2209446 L126.628775,76.627817 C128.846566,85.196183 126.336888,94.4083359 120.079062,100.666162 L120.079062,100.666162 Z M7.16267391,95.955061 C4.80575947,87.3103135 7.18176928,78.3654958 13.5187048,72.0285603 L32.9468815,52.6003836 L42.6909769,42.8590161 C32.2267132,69.7425715 39.2238029,98.2492335 48.8696935,114.002915 C50.5173513,116.695363 52.2795813,118.973168 54.1045533,120.945447 L24.7795182,113.350945 C16.1020358,111.105874 9.51686045,104.602536 7.16267391,95.955061 L7.16267391,95.955061 Z M52.2768534,107.196779 C46.2672672,95.2730835 39.1692447,71.2047314 47.7512504,47.0654537 C67.5831578,40.8540021 89.3409698,42.7990021 107.126945,52.34396 L52.2768534,107.196779 Z M89.2209418,6.39503997 C111.497057,6.39503997 119.776264,31.3608745 111.445227,47.5892125 C93.4137398,37.4413864 71.4322391,34.6207272 50.8747076,39.6810007 C53.6026178,34.2060849 71.923263,6.39503997 89.2209418,6.39503997 L89.2209418,6.39503997 Z M132.701103,75.0565407 L119.255234,23.3462742 L119.255234,23.3490021 C117.951292,18.1741564 115.318859,13.2666459 111.295191,9.20478752 C105.422001,3.33432468 86.8476599,-8.18291234 67.4713135,9.20205961 L9.08312272,67.5929783 C-7.8408324,84.5169334 0.03464446,113.424598 23.205514,119.426001 L74.9348759,132.822768 L74.9348759,132.822768 C77.5373022,133.496562 80.1779194,133.823911 82.7994411,133.823911 C91.0131788,133.823911 99.0250512,130.594065 104.982807,124.636309 L124.514644,105.101744 C132.373754,97.2453626 135.489027,85.8154187 132.701103,75.0565407 L132.701103,75.0565407 Z" id="Fill-11"></path>
        </g>
    </g>
</svg>